<?xml version="1.0" standalone="no"?>
<!DOCTYPE svg PUBLIC "-//W3C//DTD SVG 20010904//EN"
 "http://www.w3.org/TR/2001/REC-SVG-20010904/DTD/svg10.dtd">
<svg version="1.0" xmlns="http://www.w3.org/2000/svg"
 width="600.000000pt" height="600.000000pt" viewBox="0 0 600.000000 600.000000"
 preserveAspectRatio="xMidYMid meet">
<metadata>
Created by potrace 1.11, written by Peter Selinger 2001-2013
</metadata>
<g transform="translate(0.000000,600.000000) scale(0.100000,-0.100000)"
fill="#000000" stroke="none">
<path d="M2950 5740 c-14 -4 -110 -57 -215 -117 -284 -163 -645 -372 -774
-447 -62 -36 -115 -66 -118 -66 -2 0 -16 -8 -31 -19 -15 -10 -166 -99 -337
-196 -852 -490 -833 -477 -855 -555 -6 -22 -10 -515 -10 -1340 0 -1247 1
-1307 19 -1345 10 -22 29 -50 42 -62 26 -24 885 -523 900 -523 5 0 9 -4 9 -10
0 -5 4 -10 10 -10 5 0 50 -25 101 -55 50 -30 93 -55 95 -55 3 0 59 -32 127
-71 67 -40 136 -79 152 -89 17 -9 214 -124 440 -254 402 -232 472 -268 511
-261 10 2 28 4 40 4 11 1 104 49 205 107 101 58 202 116 224 129 36 21 107 62
145 85 28 17 215 125 235 136 39 21 182 103 330 189 83 48 164 95 180 105 17
9 118 68 225 130 211 121 228 131 328 189 37 21 128 73 202 116 74 43 146 84
160 91 44 22 89 69 107 111 18 38 19 105 18 1359 -1 1198 -2 1322 -17 1349
-34 63 -26 58 -638 410 -151 87 -371 214 -488 282 -117 67 -232 134 -255 147
-57 32 -97 54 -202 116 -49 29 -105 61 -122 71 -18 10 -119 69 -225 130 -380
221 -395 229 -448 228 -25 0 -56 -4 -70 -9z m275 -541 c116 -66 212 -123 215
-125 2 -3 -2 -15 -10 -27 -28 -45 -114 -194 -135 -234 -12 -23 -26 -48 -32
-55 -6 -7 -25 -40 -43 -73 -17 -33 -35 -64 -40 -70 -4 -5 -19 -32 -34 -59 -15
-26 -97 -170 -183 -320 -86 -149 -166 -289 -178 -311 -13 -22 -59 -102 -103
-178 l-80 -138 -20 33 c-11 18 -29 49 -40 68 -10 19 -62 109 -114 200 -53 91
-105 181 -116 200 -137 242 -326 567 -333 574 -23 24 3 46 151 128 53 30 643
371 780 451 52 31 97 56 100 57 3 0 100 -54 215 -121z m1155 -667 c25 -14 128
-73 230 -132 102 -59 205 -119 230 -133 25 -14 75 -42 111 -64 l66 -38 -1
-1159 c-1 -811 -4 -1160 -12 -1163 -6 -2 -52 -28 -103 -58 -93 -55 -111 -63
-111 -45 0 5 -40 76 -88 157 -49 81 -155 259 -235 396 -81 136 -212 356 -291
490 -79 133 -216 365 -306 516 -89 151 -179 302 -200 337 l-37 62 193 338
c107 185 194 339 194 340 0 1 27 48 60 104 33 56 60 104 60 107 0 3 9 18 20
33 l20 29 78 -46 c42 -25 97 -57 122 -71z m-3080 -429 c52 -91 106 -184 119
-207 13 -22 75 -130 138 -239 63 -110 122 -213 132 -230 10 -18 92 -160 183
-317 91 -157 200 -346 243 -420 43 -74 104 -181 137 -237 l59 -102 -37 -68
c-20 -37 -60 -111 -89 -163 -29 -52 -66 -120 -82 -150 -17 -30 -70 -127 -118
-215 -48 -88 -112 -203 -142 -257 l-53 -96 -83 47 c-45 26 -102 59 -127 73
-25 14 -85 49 -135 78 -49 29 -108 63 -130 75 -22 13 -98 57 -170 98 l-130 75
-3 1159 -2 1159 87 51 c49 28 93 51 98 52 6 0 53 -74 105 -166z m2162 -1030
c98 -174 117 -207 193 -338 32 -55 67 -116 78 -135 10 -19 48 -84 83 -146 35
-61 64 -113 64 -116 0 -3 -229 -5 -509 -4 l-510 1 32 55 c17 30 83 145 147
255 64 110 165 284 225 388 60 103 110 187 111 187 1 0 40 -66 86 -147z m786
-1372 c85 -148 119 -217 113 -225 -6 -7 -29 -22 -53 -35 -24 -12 -59 -31 -78
-43 -54 -32 -341 -198 -378 -220 -115 -65 -577 -331 -723 -416 -58 -34 -110
-62 -116 -62 -23 0 -818 469 -815 481 2 7 96 173 210 370 152 263 212 359 227
361 11 2 351 3 755 3 l735 0 123 -214z"/>
</g>
</svg>
