<!-- Generated by IcoMoon.io -->
<svg version="1.1" xmlns="http://www.w3.org/2000/svg" width="32" height="32" viewBox="0 0 32 32">
<title>laravel</title>
<path fill="#ff2d20" d="M31.525 7.24c0.012 0.043 0.019 0.087 0.019 0.132v6.867c0 0.18-0.097 0.347-0.252 0.435l-5.764 3.32v6.579c0 0.18-0.096 0.344-0.251 0.435l-12.036 6.927c-0.028 0.016-0.057 0.027-0.088 0.036-0.011 0.003-0.021 0.011-0.032 0.013-0.084 0.024-0.173 0.024-0.256 0-0.015-0.003-0.027-0.011-0.039-0.016-0.028-0.011-0.057-0.019-0.084-0.033l-12.031-6.927c-0.156-0.091-0.252-0.255-0.252-0.435v-20.607c0-0.044 0.007-0.088 0.019-0.131 0.004-0.016 0.013-0.028 0.019-0.043 0.008-0.027 0.019-0.053 0.031-0.077 0.005-0.017 0.020-0.029 0.031-0.044 0.016-0.021 0.028-0.041 0.044-0.060 0.016-0.013 0.033-0.024 0.049-0.036 0.019-0.016 0.036-0.032 0.055-0.045h0.001l6.017-3.463c0.153-0.089 0.345-0.089 0.5 0l6.019 3.463c0.020 0.013 0.036 0.028 0.055 0.044 0.016 0.012 0.033 0.024 0.049 0.036 0.017 0.019 0.028 0.039 0.044 0.060 0.011 0.015 0.027 0.028 0.033 0.044 0.015 0.025 0.023 0.051 0.032 0.077 0.004 0.015 0.015 0.028 0.017 0.043 0.013 0.041 0.019 0.085 0.019 0.131v12.869l5.013-2.885v-6.579c0-0.044 0.007-0.088 0.019-0.131 0.004-0.015 0.012-0.028 0.017-0.043 0.009-0.027 0.019-0.052 0.032-0.079 0.009-0.016 0.024-0.028 0.033-0.044 0.016-0.020 0.028-0.040 0.044-0.057 0.016-0.016 0.033-0.027 0.049-0.037 0.019-0.015 0.035-0.031 0.055-0.043h0.001l6.017-3.464c0.155-0.089 0.345-0.089 0.5 0l6.017 3.464c0.021 0.013 0.036 0.028 0.056 0.041 0.016 0.013 0.033 0.024 0.048 0.037 0.017 0.019 0.029 0.039 0.045 0.059 0.011 0.016 0.025 0.028 0.032 0.044 0.015 0.027 0.024 0.052 0.032 0.079 0.008 0.015 0.016 0.029 0.020 0.044zM30.539 13.949v-5.711l-5.013 2.885v5.711zM24.524 24.283v-5.716l-11.031 6.297v5.768zM1.46 4.832v19.451l11.031 6.349v-5.768l-5.768-3.264c-0.019-0.013-0.033-0.028-0.053-0.041-0.015-0.013-0.032-0.024-0.047-0.036l-0.001-0.003c-0.017-0.016-0.028-0.033-0.041-0.052-0.013-0.016-0.028-0.031-0.037-0.049h-0.003c-0.011-0.019-0.017-0.041-0.027-0.063-0.008-0.021-0.019-0.036-0.024-0.057-0.005-0.024-0.008-0.049-0.011-0.076-0.003-0.019-0.008-0.036-0.008-0.055v-13.449l-2.907-1.676zM6.975 1.080l-5.013 2.885 5.013 2.885 5.011-2.885zM9.583 19.087l2.909-1.675v-12.58l-5.016 2.887v12.58zM25.025 4.485l-5.013 2.885 5.013 2.884 5.012-2.885zM24.524 11.124l-5.015-2.885v5.711l5.015 2.885zM12.991 23.996l11.027-6.293-5.009-2.884-11.020 6.345z"></path>
</svg>
